<svg xmlns="http://www.w3.org/2000/svg" width="950" height="1476" viewBox="0 0 950 1476">
  <rect width="950" height="1476" fill="#eaf6ff"/>
  <text x="475" y="90" text-anchor="middle" font-family="Arial, sans-serif" font-size="24" font-weight="800" fill="#073b82">PREFEITURA MUNICIPAL</text>
  <text x="475" y="124" text-anchor="middle" font-family="Arial, sans-serif" font-size="30" font-weight="900" fill="#073b82">MACHADINHO D'OESTE</text>
  <rect x="70" y="160" width="810" height="320" rx="45" fill="none" stroke="#0b4da2" stroke-width="4"/>
  <path d="M70 205Q70 160 115 160H835Q880 160 880 205V260H70Z" fill="#083d8b"/>
  <text x="475" y="230" text-anchor="middle" font-family="Arial, sans-serif" font-size="38" font-weight="900" fill="#fff">RESPONSÁVEL LEGAL / CUIDADOR</text>
  <g font-family="Arial, sans-serif" font-size="30" font-weight="800" fill="#073b82">
    <text x="110" y="310">NOME:</text><text x="110" y="382">TELEFONE:</text><text x="110" y="454">PARENTESCO:</text>
  </g>
  <g stroke="#6297cb" stroke-width="3"><line x1="110" y1="330" x2="840" y2="330"/><line x1="110" y1="402" x2="840" y2="402"/><line x1="110" y1="474" x2="840" y2="474"/></g>
  <rect x="70" y="515" width="810" height="315" rx="45" fill="none" stroke="#0b4da2" stroke-width="4"/>
  <path d="M70 560Q70 515 115 515H835Q880 515 880 560V630H70Z" fill="#e00019"/>
  <circle cx="142" cy="573" r="32" fill="#fff"/><rect x="132" y="548" width="20" height="50" fill="#e00019"/><rect x="117" y="563" width="50" height="20" fill="#e00019"/>
  <text x="510" y="590" text-anchor="middle" font-family="Arial, sans-serif" font-size="38" font-weight="900" fill="#fff">INFORMAÇÕES DE EMERGÊNCIA</text>
  <g font-family="Arial, sans-serif" font-size="28" font-weight="800" fill="#073b82">
    <text x="110" y="680">TIPO SANGUÍNEO:</text><text x="110" y="750">ALERGIAS A MEDICAMENTOS:</text><text x="110" y="820">OUTRAS INFORMAÇÕES:</text>
  </g>
  <g stroke="#6297cb" stroke-width="3"><line x1="110" y1="700" x2="840" y2="700"/><line x1="110" y1="770" x2="840" y2="770"/><line x1="110" y1="840" x2="840" y2="840"/></g>
  <text x="575" y="940" font-family="Arial, sans-serif" font-size="35" font-weight="900" fill="#073b82">EMISSÃO:</text>
  <rect x="570" y="970" width="245" height="55" rx="10" fill="#fff" stroke="#0b4da2" stroke-width="4"/>
  <g transform="translate(80 940)"><path d="M135 0c-40-40-110-10-110 50 0 90 110 145 135 160 25-15 135-70 135-160 0-60-70-90-110-50-15 15-20 25-25 38-5-13-10-23-25-38z" fill="#159447"/><path d="M25 50c0-60 70-90 110-50 15 15 20 25 25 38v172C135 195 25 140 25 50z" fill="#e21d2d"/><path d="M160 38c5-13 10-23 25-38 40-40 110-10 110 50 0 90-110 145-135 160z" fill="#1266cc"/></g>
  <text x="215" y="1205" text-anchor="middle" font-family="Arial, sans-serif" font-size="28" font-weight="900" fill="#073b82">ATENDIMENTO</text><text x="215" y="1240" text-anchor="middle" font-family="Arial, sans-serif" font-size="34" font-weight="900" fill="#073b82">PRIORITÁRIO</text>
  <rect x="500" y="1060" width="380" height="300" rx="30" fill="#fff" stroke="#0b4da2" stroke-width="4"/>
  <text x="690" y="1100" text-anchor="middle" font-family="Arial, sans-serif" font-size="20" font-weight="900" fill="#073b82">LEIA O QR CODE PARA AUTENTICAÇÃO</text>
</svg>
